<svg xmlns="http://www.w3.org/2000/svg" width="428.916" height="671.049" viewBox="0 0 428.916 671.049">
  <g id="undraw_exams_g4ow" transform="translate(-553.98 -114.481)">
    <path id="Path_161" data-name="Path 161" d="M556.48,446.53l3,287,14-2-3-285Z" fill="#3f3d56"/>
    <path id="Path_162" data-name="Path 162" d="M640.48,498.53l3,287,14-2-3-285Z" fill="#3f3d56"/>
    <path id="Path_163" data-name="Path 163" d="M1010.56,692h0l-.06-5.51v-3.28l-.53-50.48-.83-78.92L1009,547H995l.07,6.56.44,42.27.19,18.3h0l.16,14.82.26,25.62.16,15.11h0v1.6l.21,19.86.18,17.51,1.14-1.26q2.75-3.07,5.38-6.24Z" transform="translate(-108.55 -48.49)" fill="#3f3d56"/>
    <path id="Path_164" data-name="Path 164" d="M624.98,545.03l-8,11.96,8,54.49,68,18.61h110l66,3.99,31.44-21.52-5.44-36.96-24-30.57Z" fill="#0088a9"/>
    <path id="Path_165" data-name="Path 165" d="M725.53,605.48l-4,33.22s-21,65.13,148,61.14,140-17.28,140-17.28l-1-38.54s5.89,18.24-80,15.77-166-10.45-166-10.45S732.53,654.65,725.53,605.48Z" transform="translate(-108.55 -48.49)" fill="#3f3d56"/>
    <path id="Path_166" data-name="Path 166" d="M866.33,307.72c-9.64,4.39-16.94,12.9-21.83,22.31s-7.64,19.74-10.35,30c-2.86,10.82-5.73,21.67-7.21,32.76-2.64,19.72-.66,40.45,8.4,58.16s25.8,32,45.4,35.41c7.57,1.33,15.35,1.06,23,.27a187,187,0,0,0,40.61-8.95c13.75-4.65,28.06-11.81,34.18-25,3.55-7.65,3.85-16.37,3.68-24.79A263.722,263.722,0,0,0,971.9,360.1c-1.85-6.4-4-12.85-7.92-18.24s-9.28-9.34-14.75-13C925.84,313.11,895.1,294.64,866.33,307.72Z" transform="translate(-108.55 -48.49)" fill="#fbbebe"/>
    <path id="Path_167" data-name="Path 167" d="M866.33,307.72c-9.64,4.39-16.94,12.9-21.83,22.31s-7.64,19.74-10.35,30c-2.86,10.82-5.73,21.67-7.21,32.76-2.64,19.72-.66,40.45,8.4,58.16s25.8,32,45.4,35.41c7.57,1.33,15.35,1.06,23,.27a187,187,0,0,0,40.61-8.95c13.75-4.65,28.06-11.81,34.18-25,3.55-7.65,3.85-16.37,3.68-24.79A263.722,263.722,0,0,0,971.9,360.1c-1.85-6.4-4-12.85-7.92-18.24s-9.28-9.34-14.75-13C925.84,313.11,895.1,294.64,866.33,307.72Z" transform="translate(-108.55 -48.49)" opacity="0.05"/>
    <path id="Path_168" data-name="Path 168" d="M855.5,433.59a45.39,45.39,0,0,0,10,10c9.52,6.58,21.74,7.47,33.3,7.83,9.28.28,19.92-.25,25.74-7.49,2.62-3.26,3.8-7.42,4.86-11.47a508.791,508.791,0,0,0,13.9-75.77l26.48.09c11.46,49.07,10.52,100.08,9.52,150.47l-1.45,73.48-17.06-1.81c-40.51-4.29-81.08-8.58-121.81-9.32a696.786,696.786,0,0,0-71.52,2.36L804.61,461.5c4.82-14.36,9.69-28.91,10.82-44,1.63-21.89-4.51-45,4-65.25.68-1.63,1.54-3.32,3.09-4.17s3.51-.64,5.29-.41c3.36.45,13.63,0,16.07,2.15,3.6,3.12,1.22,3.59-.05,8.62-2.27,9-4.42,17.33-4.39,26.71C839.47,402.18,844.75,420.16,855.5,433.59Z" transform="translate(-108.55 -48.49)" fill="#0088a9"/>
    <path id="Path_169" data-name="Path 169" d="M1010.56,692h0q6.69-8.88,12.61-18.39c-2-4.28-4.2-8.46-5.95-12.83-2.68-6.7-4.22-13.8-5.74-20.85q-.78-3.6-1.55-7.2c-5.6-26.11-10.86-52.59-11.95-79.06q-.15-3.3-.19-6.6v-8.22c.12-6,.5-12.05,1.19-18.07.13-1.18.28-2.36.44-3.54a5.077,5.077,0,0,1,.1-.77l68-2.48h0l5.72-.21c3.93-.14,8.09-.36,11.33-2.59,5.45-3.74,6.09-11.41,6-18a267.161,267.161,0,0,0-5.64-49.55c-2.58-12.26-6.26-24.79-14.52-34.21-6.78-7.74-16.6-13.37-20.13-23-1.31-3.58-1.64-7.51-3.34-10.93s-4.51-5.93-7.16-8.57a119.329,119.329,0,0,1-22.9-31.72c-4.05-8.16-8.44-17.16-13.73-22.8-.26-.29-.52-.56-.79-.82-4.5-4.45-9.65-6.4-15.75-3.37a20.173,20.173,0,0,0-3.12,1.94h0a38,38,0,0,0-5.93,5.64,135,135,0,0,0-16.13,23,127.828,127.828,0,0,0-8.24,18,124.114,124.114,0,0,0-4.45,15c-.86,3.77-1.54,7.58-2.08,11.4-2,14.36-2,29-1.72,43.54.3,13.36.89,26.75,2.1,40.06q.45,4.83,1,9.65,1.1,9.53,2.72,19c.43,2.41.87,4.82,1.36,7.22.12.64.25,1.28.38,1.91l.06.27a162.451,162.451,0,0,1,3.07,16.91q.12,1.07.18,2.13a82.325,82.325,0,0,1-.08,9.81c-.23,3.86-.59,7.71-.77,11.57a18.81,18.81,0,0,1-.07,2c-.05,1.95,0,3.9,0,5.85a92.714,92.714,0,0,0,1.66,13.89,89.849,89.849,0,0,0,8.65,24.44c.38.72.77,1.43,1.16,2.13,5.07,9.06,11.47,17.37,16.16,26.64a115,115,0,0,1,9,26.21q1,4.49,1.9,9c.93,4.8,1.76,9.64,2.61,14.48.08.48.17,1,.26,1.44,1.13,6.42,2.32,12.81,3.85,19.08.89,3.65,1.89,7.25,3.06,10.79Z" transform="translate(-108.55 -48.49)" fill="#464353"/>
    <path id="Path_170" data-name="Path 170" d="M997.2,613.18c0,.9-.06,1.8-.1,2.71A128.2,128.2,0,0,1,995.89,629a85.293,85.293,0,0,1-4.33,17.39A58.638,58.638,0,0,1,986.4,657a48.914,48.914,0,0,1-6.42,8.27c-6,6.24-14.64,8.23-23,10.86a56.618,56.618,0,0,0-11.09,4.53c-.63.35-1.25.73-1.85,1.13l-10.46,6.93c-3.26,2.15-6.59,4.38-8.83,7.57a16.291,16.291,0,0,0-1,1.69,38.32,38.32,0,0,0-3.08,9.24c-5.44,22.66-10.89,45.34-14.62,68.34-.25,1.52-.49,3.05-.75,4.58l-.09.48a2.5,2.5,0,0,0-.16-.33c-26.76,16.18-54.51,30.78-83.1,42.47l-6.21-52a62.9,62.9,0,0,1-.64-12.78c.59-6.73,3.33-13.11,4.07-19.82a33.77,33.77,0,0,0-3.57-19.07c-1.18-2.28-2.66-4.52-2.93-7.07s1.2-4.88,3.76-5.14c2-2.22,2.16-5.25,1.57-8.25a23.991,23.991,0,0,0-1.4-4.57c-1.7-4.18-3.85-8.73-2.39-13a4.86,4.86,0,0,0,.5-2.5.41.41,0,0,0,0-.16c-.34-1.12-1.67-1.61-2.36-2.56-1.3-1.77,0-4.18.8-6.22a23.731,23.731,0,0,0,1.34-6.81c.11-1.29.19-2.59.33-3.87a38.988,38.988,0,0,1,.93-5.14,40.57,40.57,0,0,1,16.43-23.52c3.89-2.62,8.22-4.53,12.19-7a111.669,111.669,0,0,0,11.62-9q13.21-11,27.47-20.74a346.978,346.978,0,0,1,31.72-19.26q3.5-1.89,7-3.68,3.81-2,7.67-3.79c8.24-3.93,17.59-2.46,26.7.16,3.82,1.09,7.59,2.39,11.23,3.57a52,52,0,0,1,10.2,4.58c8.07,4.74,14.74,11.74,17.51,20.58a1.076,1.076,0,0,1,0,.17C997.25,601.41,997.36,607.35,997.2,613.18Z" transform="translate(-108.55 -48.49)" fill="#35323e"/>
    <path id="Path_171" data-name="Path 171" d="M997.2,613.18c0,.9-.06,1.8-.1,2.71A128.2,128.2,0,0,1,995.89,629a85.293,85.293,0,0,1-4.33,17.39A58.638,58.638,0,0,1,986.4,657a48.914,48.914,0,0,1-6.42,8.27c-6,6.24-14.64,8.23-23,10.86a56.618,56.618,0,0,0-11.09,4.53c-.63.35-1.25.73-1.85,1.13l-10.46,6.93c-3.26,2.15-6.59,4.38-8.83,7.57a16.291,16.291,0,0,0-1,1.69,38.32,38.32,0,0,0-3.08,9.24c-5.44,22.66-10.89,45.34-14.62,68.34-.25,1.52-.49,3.05-.75,4.58l-.09.48a2.5,2.5,0,0,0-.16-.33c-26.76,16.18-54.51,30.78-83.1,42.47l-6.21-52a62.9,62.9,0,0,1-.64-12.78c.59-6.73,3.33-13.11,4.07-19.82a33.77,33.77,0,0,0-3.57-19.07c-1.18-2.28-2.66-4.52-2.93-7.07s1.2-4.88,3.76-5.14c2-2.22,2.16-5.25,1.57-8.25a23.991,23.991,0,0,0-1.4-4.57c-1.7-4.18-3.85-8.73-2.39-13a4.86,4.86,0,0,0,.5-2.5.41.41,0,0,0,0-.16c-.34-1.12-1.67-1.61-2.36-2.56-1.3-1.77,0-4.18.8-6.22a23.731,23.731,0,0,0,1.34-6.81c.11-1.29.19-2.59.33-3.87a38.988,38.988,0,0,1,.93-5.14,40.57,40.57,0,0,1,16.43-23.52c3.89-2.62,8.22-4.53,12.19-7a111.669,111.669,0,0,0,11.62-9q13.21-11,27.47-20.74a346.978,346.978,0,0,1,31.72-19.26q3.5-1.89,7-3.68,3.81-2,7.67-3.79c8.24-3.93,17.59-2.46,26.7.16,3.82,1.09,7.59,2.39,11.23,3.57a52,52,0,0,1,10.2,4.58c8.07,4.74,14.74,11.74,17.51,20.58a1.076,1.076,0,0,1,0,.17C997.25,601.41,997.36,607.35,997.2,613.18Z" transform="translate(-108.55 -48.49)" fill="#35323e" opacity="0.1"/>
    <path id="Path_172" data-name="Path 172" d="M902.25,447.54a1.88,1.88,0,1,0-3.38,1.64l-1,.49,29.82,61.12,5.39-2.63L903.26,447Z" transform="translate(-108.55 -48.49)" fill="#3f3d56"/>
    <circle id="Ellipse_57" data-name="Ellipse 57" cx="64" cy="64" r="64" transform="translate(766.98 207.03)" fill="#fbbebe"/>
    <path id="Path_173" data-name="Path 173" d="M1024,279.9a85,85,0,0,0-2.26-15.09c-3.76-16.17-10.63-32.09-22.46-43.7a87.525,87.525,0,0,0-2.61-8.39,1.6,1.6,0,0,0-.07-.2,93.9,93.9,0,0,0-15.1-26.77c-3.75-4.66-8.61-9.26-14.59-9.44-1.68-.06-3.46.23-5-.54a9,9,0,0,1-2.79-2.86,26.19,26.19,0,0,0-25.36-9.49l-.62.13c-.35.07-.7.15-1,.24s-.84.24-1.26.37q.69,1.14,1.35,2.31,1.78,3.17,3.3,6.48,1.26,2.76,2.33,5.61c-10.24,1.17-18.58,8.44-26.2,15.36L893.72,210.2a.751.751,0,0,0-.09.09l-.52.5c-.13.13-.26.26-.38.4a.857.857,0,0,0-.13.14c-.15.16-.29.33-.43.5a7.55,7.55,0,0,0-.67,1,3.672,3.672,0,0,0-.26.47,1,1,0,0,0-.07.15,3.687,3.687,0,0,0-.17.42.14.14,0,0,0,0,.06,2.319,2.319,0,0,0-.07.25,3,3,0,0,0,.17,2.12l11.83.13h1.39c.06,1.58.11,3.17.17,4.75a67.389,67.389,0,0,0-5.4,4.5,58.63,58.63,0,0,0-5.27,5.56c-10.67,12.89-16.24,29.54-16.8,46.3v6.12c0,1,.09,2,.17,3a7.491,7.491,0,0,0,1,3.71,3.443,3.443,0,0,0,.28.36,6.9,6.9,0,0,0,2.12,1.56l.86.42h0c.43.21.84.41,1.24.64,3.77,2.13,6,6.24,9.43,8.88.2.15.4.3.6.43l.45.3.28.18.38.22a8.157,8.157,0,0,0,.77.41h0l.48.24h.08c.4.18.8.35,1.21.5l.57.2.17.06c.16.05.33.11.5.15q.51.15,1,.27l1,.22c.39.07.79.14,1.19.19l.59.08.6.06q1.43.13,2.88.15h0a72,72,0,0,0,9.07-.63l25.52-3c5.79-.67,11.7-1.34,17.41-.16,4.84,1,9.3,3.3,14,4.93,1.06.37,2.12.71,3.19,1,.39.11.79.23,1.19.33l.55.14,1.28.31c.46.11.92.22,1.38.31.65.14,1.29.26,1.94.38.44.09.89.16,1.34.24h.09l1.28.2h.31l.95.13c.46.07.92.13,1.39.18q1.53.19,3.06.33c1.65.16,3.31.28,5,.38l1.66.1,1.66.08,5,.22h.92a25.8,25.8,0,0,0,6.22-.32c.36-.07.71-.15,1.06-.25s.64-.2,1-.32c3.75-1.44,6.49-4.75,8.39-8.29.4-.75.77-1.5,1.11-2.27s.65-1.55.93-2.33c.35-1,.65-1.95.91-2.95.08-.27.15-.54.21-.82s.2-.83.28-1.25c.25-1.15.44-2.31.58-3.48a10.678,10.678,0,0,1,.13-1.12c.09-1,.16-1.93.2-2.91v-2.24C1024.07,282,1024,280.93,1024,279.9Zm-25.64-59.7c-.81-.76-1.64-1.49-2.48-2.18a10.331,10.331,0,0,1,2.47,2.18Z" transform="translate(-108.55 -48.49)" fill="#464353"/>
    <path id="Path_174" data-name="Path 174" d="M816.7,316c-7.53-.93-15-4.23-22.43-2.61-4.65,1-8.65,3.89-12.37,6.86A150.41,150.41,0,0,0,747.13,360a21,21,0,0,0-3.21,7.52c-.48,3.12.37,6.29,1.38,9.28,6.84,20.21,21.47,37.09,28.13,57.36,7,21.32,4.57,44.62-.59,66.46A277.749,277.749,0,0,1,742,577.32a43.738,43.738,0,0,1-7.1,9.72c-3.64,3.5-8.53,6-10.69,10.58-1,2-1.29,4.28-2,6.42-2,6-6.84,11.14-7.31,17.47-.35,4.83,1.94,9.4,3.33,14a38.58,38.58,0,0,1-.71,24.1c-5.07,13.9-18.33,26.54-14.48,40.83,8.59-2.47,18.11-5.68,22.16-13.65,1.43-2.82,2.14-6.18,4.55-8.24,4.81-4.09,13-.39,18.11-4.15,3.86-2.86,4-8.72,2.28-13.22s-4.68-8.46-6-13.09c-2.3-8.35,1.38-17.18.7-25.81-.32-4-1.55-7.83-1.64-11.81-.17-7.73,4.11-15,9.8-20.25s12.72-8.73,19.64-12.16l26.16-13c9.49-4.7,19.89-10.43,23-20.55,1.18-3.79,1.19-7.83,1.25-11.79.89-60.51,16.05-119.8,31.12-178.41,2.34-9.08,4.72-18.2,8.2-26.92s10.29-15.72,13.76-23.82C856,301.21,837.61,318.62,816.7,316Z" transform="translate(-108.55 -48.49)" fill="#464353"/>
    <path id="Path_175" data-name="Path 175" d="M960.91,695.61c2.31,14,3.72,28.3,4.82,42.53-18,14.92-37.38,27.9-57.07,39.94-1.12.69-2.25,1.37-3.38,2l-.09.48a2.481,2.481,0,0,0-.16-.33,15.05,15.05,0,0,0-7.52-7.42q-11.07-23.25-22.12-46.5c-4-8.37-8-16.82-10-25.85a3.99,3.99,0,0,0-.12-.58c-1.52-7-1.87-14.27-2.88-21.36a61.7,61.7,0,0,0-2.73-11.94c-1.2-3.45-2.85-6.8-4.31-10.17-1.8-4.16-3.31-8.37-3.38-12.86,0-1.43.09-3-.61-4.2a10.891,10.891,0,0,0-2.73-2.64,10.41,10.41,0,0,1-3.36-9.51c-6,.31-9.38,6.76-11.79,12.23a66.681,66.681,0,0,1-8.56,15,28.45,28.45,0,0,1-9.48,7.89c-.33.16-.66.32-1,.46-8.35,3.68-18.1,2.38-27.15.72-7.91-1.45-16.09-3.25-22.45-8.17l-.68-.54a29.373,29.373,0,0,1-5-5.34c-5.33-7.28-7.69-16.87-9-26-.12-.86-.24-1.72-.35-2.58a96.166,96.166,0,0,1-.75-19.48c.12-1.6.29-3.2.5-4.79.14-1,.29-2.08.46-3.12a.282.282,0,0,1,0-.09c.26-1.65.54-3.31.82-5,1-5.67,2-11.49,5-16.37a31,31,0,0,1,7.36-7.88c1.08-.85,2.19-1.66,3.31-2.44,1.82-1.26,3.69-2.46,5.59-3.59a96.624,96.624,0,0,1,15-7.3c1.24-.48,2.5-.93,3.76-1.36a29.51,29.51,0,0,1,15.28-1.21,80.407,80.407,0,0,0,13.68.8c11.73-.23,23.51-2.47,35.22-3.92,16.26-2,33.73-2.24,47.91,6,.68.39,1.34.8,2,1.23,7,4.58,12.64,11,17.19,18.17,1,1.51,1.87,3.06,2.73,4.63a117.946,117.946,0,0,1,5.37,11.1,13.8,13.8,0,0,1,1.49,6,7.794,7.794,0,0,1-.16,1.18c-.27,1.42-.81,2.8-1,4.24-.63,5.45,4,10,5.73,15.19,1.12,3.38,1,7,1.63,10.56.91,5,3.36,9.5,5.56,14a175.088,175.088,0,0,1,8.9,22.37c1.74,5.33,3.23,10.74,4.54,16.2q.64,2.63,1.21,5.27C959.23,686.1,960.12,690.84,960.91,695.61Z" transform="translate(-108.55 -48.49)" fill="#35323e"/>
    <path id="Path_176" data-name="Path 176" d="M958.98,499.03v7l-1.29-.02-1.44-.02-16.08-.2-39.62-.52-11.12-.14-2.88-.04-16.69-.21-23.52-.31-49.9-.65-86.59-1.12-31.25-.4-12.54-.16-11.54-.15-7.19-.1-6.81-.09-50.49-.65-14-.18-3.05-.04L571,495.92l-14.39-37.11-2.63-6.78,2-8,9,6,5.54.69,91.21,11.34,17.12,2.13,36.3,4.52,35.56,4.42,13.94,1.73,82.49,10.26,23.05,2.87,19.08,2.37,67.84,8.44Z" fill="#3f3d56"/>
    <path id="Path_177" data-name="Path 177" d="M555.98,444.03l18,47,385,8v-51Z" fill="#504f60"/>
    <path id="Path_178" data-name="Path 178" d="M575.98,496.03l3,287,14-2-3-285Z" fill="#3f3d56"/>
    <path id="Path_179" data-name="Path 179" d="M1066.24,554.49h-1.44a316.479,316.479,0,0,1-11.53,52.79l-4.55-53-.19-2.26,16.82-1.94.56-.06Z" transform="translate(-108.55 -48.49)" fill="#3f3d56"/>
    <path id="Path_180" data-name="Path 180" d="M902.98,472.03l-146.5,3-45.5-15,122-7Z" fill="#fff"/>
    <path id="Path_181" data-name="Path 181" d="M827.76,462.2a9.82,9.82,0,0,0-4,2.85,10.562,10.562,0,0,0-1.49,4.54l-2.46,14.67a6.49,6.49,0,0,0,.19,4.07c.64,1.23,2.5,1.87,3.43.85-.12,2.87.13,5.93,1.8,8.27s5.17,3.57,7.53,1.94a4.88,4.88,0,0,0,7.35,1.14c-1.42.48-1.52,2.65-.51,3.75a6.53,6.53,0,0,0,4.08,1.63,99.79,99.79,0,0,0,51.9-6.53c1.55-.64-2.53-19.75-2.94-21.71-1-4.61-1.5-10.24-5.39-13.34-9.3-7.42-25.82-8.88-37.15-8A64,64,0,0,0,827.76,462.2Z" transform="translate(-108.55 -48.49)" fill="#fbbebe"/>
    <path id="Path_182" data-name="Path 182" d="M976.82,464.42c-36.17.69-73.09,1.28-107.61-9.55a73,73,0,0,1-.66,38.87l169.12,14c7.17.59,36.9,3.95,43.89,2.26s-58.65-23.31-56-30c7.29-18.43,31.71-29.23,14.12-29.92C1017.48,449.2,999.19,464,976.82,464.42Z" transform="translate(-108.55 -48.49)" opacity="0.1"/>
    <path id="Path_183" data-name="Path 183" d="M977.82,466.42c-36.17.69-73.09,1.28-107.61-9.55a73,73,0,0,1-.66,38.87l169.12,14c7.17.59,36.9,4,43.89,2.26s5.35-10.31,8-17c7.29-18.43-32.29-42.23-49.88-42.92C1018.48,451.2,1000.19,466,977.82,466.42Z" transform="translate(-108.55 -48.49)" fill="#464353"/>
    <path id="Path_184" data-name="Path 184" d="M920.31,469.2a9.79,9.79,0,0,1,4,2.85,10.709,10.709,0,0,1,1.5,4.54l2.46,14.67a6.56,6.56,0,0,1-.19,4.07c-.64,1.23-2.51,1.87-3.43.85.11,2.87-.13,5.93-1.8,8.27s-5.17,3.57-7.54,1.94a4.88,4.88,0,0,1-7.35,1.14c1.42.48,1.53,2.65.52,3.75a6.56,6.56,0,0,1-4.09,1.63,99.749,99.749,0,0,1-51.89-6.53c-1.55-.64,2.52-19.75,2.94-21.71,1-4.61,1.5-10.24,5.39-13.34,9.29-7.42,25.82-8.88,37.15-8a64,64,0,0,1,22.33,5.87Z" transform="translate(-108.55 -48.49)" fill="#fbbebe"/>
    <path id="Path_185" data-name="Path 185" d="M681.31,437.35c-3.32,4.28-6.65,8.65-8.79,13.64-4.09,9.52-3.49,20.3-2.81,30.64.19,3,.43,6.06,2,8.55a14.441,14.441,0,0,0,5.22,4.45c8.66,4.92,18.8,6.39,28.7,7.49q22.74,2.52,45.64,3.07c37.82.92,76.22-2.17,113.06,6.4-4.56-6.93-4.55-16.1-2-24s7.46-14.78,12.27-21.55c-16.86-5.34-34.94,3-52.6,2.17-18.13-.85-34.91-11.33-53.06-11.32-3.9,0-7.87.49-11.66-.45s-7.46-3.8-7.81-7.69c4.84,1.09,9.43-3.05,11.43-7.59s2.36-9.67,4.3-14.24c4.83-11.37,17.88-16.64,26-26,1.28-1.48,2.49-3.23,2.45-5.19a8.12,8.12,0,0,0-2-4.47c-6.75-9-16.92-14-25.37-21-2.94-2.44-8.87-11.64-12.17-12.49-6.12-1.57-11.31,7.27-15.29,11.58Q708.68,402.1,681.31,437.35Z" transform="translate(-108.55 -48.49)" fill="#464353"/>
    <path id="Path_186" data-name="Path 186" d="M882.39,434.81a33.1,33.1,0,0,1,6.69,6.63,11.42,11.42,0,0,1,2.09,8.94,13.36,13.36,0,0,1,8.33-13.83Z" transform="translate(-108.55 -48.49)" opacity="0.07"/>
    <g id="Group_10" data-name="Group 10" opacity="0.1">
      <path id="Path_187" data-name="Path 187" d="M937.85,172.57a86.873,86.873,0,0,0-4.06-9.15,24.524,24.524,0,0,0-2.92.75A84.586,84.586,0,0,1,935.5,173,16.768,16.768,0,0,1,937.85,172.57Z" transform="translate(-108.55 -48.49)"/>
      <path id="Path_188" data-name="Path 188" d="M995.87,212c.27.22.53.47.79.7a1.452,1.452,0,0,0-.07-.19Q996.25,212.26,995.87,212Z" transform="translate(-108.55 -48.49)"/>
      <path id="Path_189" data-name="Path 189" d="M902.91,216.4c.52-.41,1-.84,1.56-1.24l-.16-4.75-10.68-.11c-1.73,1.59-3.57,3.87-2.55,6Z" transform="translate(-108.55 -48.49)"/>
      <path id="Path_190" data-name="Path 190" d="M1019.67,296.36c-1.9,3.54-4.64,6.86-8.39,8.29-2.89,1.1-6.07,1-9.16.86-10.54-.43-21.26-.9-31.22-4.39-4.66-1.64-9.12-3.93-14-4.94-5.71-1.18-11.62-.51-17.41.17l-25.52,3c-7.53.88-15.92,1.54-21.93-3.08-3.44-2.64-5.66-6.75-9.43-8.87-1.59-.9-3.48-1.48-4.51-3a7.489,7.489,0,0,1-1-3.71c-.08-1.05-.13-2.1-.17-3.15a84.625,84.625,0,0,0,.17,9.15,7.49,7.49,0,0,0,1,3.71c1,1.51,2.92,2.09,4.51,3,3.77,2.12,6,6.23,9.43,8.87,6,4.62,14.4,4,21.93,3.08l25.52-3c5.79-.68,11.7-1.35,17.41-.17,4.84,1,9.3,3.3,14,4.94,10,3.49,20.68,4,31.22,4.39,3.09.13,6.27.24,9.16-.86,3.75-1.43,6.49-4.75,8.39-8.29,3.68-6.85,4.71-14.62,4.32-22.45a39.058,39.058,0,0,1-4.32,16.45Z" transform="translate(-108.55 -48.49)"/>
    </g>
    <path id="Path_191" data-name="Path 191" d="M937.56,179l14,13S939.56,187,937.56,179Z" transform="translate(-108.55 -48.49)" opacity="0.1"/>
  </g>
</svg>
