<svg xmlns="http://www.w3.org/2000/svg" width="461.531" height="725.45" viewBox="0 0 461.531 725.45">
  <g id="undraw_analyze_17kw" transform="translate(-423.913 -60.723)">
    <ellipse id="Ellipse_62" data-name="Ellipse 62" cx="230.766" cy="19.331" rx="230.766" ry="19.331" transform="translate(423.913 747.51)" fill="#3f3d56"/>
    <path id="Path_217" data-name="Path 217" d="M1035.658,622.69c0,94.729-56.315,127.805-125.783,127.805S784.091,717.419,784.091,622.69,909.875,407.45,909.875,407.45,1035.658,527.961,1035.658,622.69Z" transform="translate(-151.422 -72.094)" fill="#f2f2f2"/>
    <path id="Path_218" data-name="Path 218" d="M705.725,616.586l1.288-79.281,53.611-98.08-53.41,85.644.579-35.648,36.949-70.961-36.8,61.527h0l1.042-64.114,39.566-56.493-39.4,46.412.65-117.561-4.09,155.63.336-6.42-40.227-61.574,39.582,73.9-3.748,71.6-.111-1.9-46.375-64.8L701.4,525.984l-.469,8.954-.085.135.039.735-9.51,181.666h12.705l1.525-93.833L751.73,552.3Z" transform="translate(48.147 47.325)" fill="#3f3d56"/>
    <path id="Path_219" data-name="Path 219" d="M972.2,737.321c0,27.146-16.137,36.625-36.045,36.625q-.692,0-1.381-.015c-.922-.02-1.836-.064-2.739-.125-17.967-1.272-31.925-11.238-31.925-36.484,0-26.127,33.388-59.1,35.9-61.536l0,0,.145-.141S972.2,710.175,972.2,737.321Z" transform="translate(-127.266 -16.257)" fill="#0088a9"/>
    <path id="Path_220" data-name="Path 220" d="M931.357,769.794l13.183-18.421-13.216,20.444-.035,2.115c-.922-.02-1.836-.064-2.739-.125l1.421-27.16-.011-.211.024-.039.134-2.565-13.249-20.494,13.291,18.57.031.545,1.074-20.521-11.343-21.177L931.4,718.329l1.118-42.544,0-.145v.141l-.187,33.548,11.293-13.3-11.339,16.19-.3,18.373,10.544-17.633L931.95,733.3l-.167,10.214,15.307-24.542-15.364,28.106Z" transform="translate(-123.778 -16.257)" fill="#3f3d56"/>
    <path id="Path_226" data-name="Path 226" d="M796.587,706.082s-3.625,22.956-9.666,26.58,31.413,12.082,31.413,12.082l6.041-36.246Z" transform="translate(-150.97 -9.919)" fill="#fbbebe"/>
    <path id="Path_227" data-name="Path 227" d="M842.634,489.082l13.29,15.707-6.041,54.369-4.833,107.53s9.666,93.031,0,95.448S791.89,763.342,793.1,757.3s2.416-10.874,4.833-19.331-2.416-38.662-2.416-38.662l6.041-33.83L779.808,519.286Z" transform="translate(-152.313 -55.098)" fill="#2f2e41"/>
    <path id="Path_228" data-name="Path 228" d="M805.67,725.267s-13.29-2.416-14.5,0-24.164,27.789-27.789,27.789-30.2,24.164-2.416,25.372,73.7-20.539,73.7-20.539-6.757-30.744-6.4-29.266S805.67,731.308,805.67,725.267Z" transform="translate(-158.845 -6.149)" fill="#2f2e41"/>
    <path id="Path_229" data-name="Path 229" d="M783.808,682.413s33.829,37.454,35.038,41.079,19.331,0,19.331,0l7.249-24.164-6.041-8.457-33.83-27.789Z" transform="translate(-151.481 -18.872)" fill="#fbbebe"/>
    <path id="Path_230" data-name="Path 230" d="M826.827,706.494l-17.519,16.49s22.352,34.255,22.352,37.879,1.208,33.829,13.29,29S858.24,736.7,858.24,736.7s-1.208-49.536-8.457-53.161-23.138-2.479-23.138-2.479S836.492,705.286,826.827,706.494Z" transform="translate(-146.172 -15.165)" fill="#2f2e41"/>
    <path id="Path_231" data-name="Path 231" d="M748.414,400.943s-6.041,19.331-7.249,24.164-8.457,18.123-8.457,38.662,2.416,44.7,0,47.12-41.079,137.734-24.164,152.233,72.492,62.826,76.116,68.867,4.833,20.539,12.082,18.123,35.038-26.58,36.246-31.413-15.707-13.29-15.707-13.29-33.83-49.536-42.287-48.328-7.249-6.041-6.041-9.666,3.625-6.041,0-6.041-1.208-9.666,0-14.5,29-70.075,29-70.075l73.7-32.621s-3.625-88.2-30.2-112.362l-6.041-14.5S767.745,392.486,748.414,400.943Z" transform="translate(-168.039 -74.489)" fill="#2f2e41"/>
    <path id="Path_232" data-name="Path 232" d="M771.846,242.082s6.041,42.287-8.457,44.7-26.58,1.208-26.58,2.416,36.246,38.662,36.246,38.662l33.83-2.416,30.2-32.621S809.3,287.993,809.3,271.078s-1.208-29-1.208-29Z" transform="translate(-161.266 -106.523)" fill="#fbbebe"/>
    <path id="Path_233" data-name="Path 233" d="M771.846,242.082s6.041,42.287-8.457,44.7-26.58,1.208-26.58,2.416,36.246,38.662,36.246,38.662l33.83-2.416,30.2-32.621S809.3,287.993,809.3,271.078s-1.208-29-1.208-29Z" transform="translate(-161.266 -106.523)" opacity="0.1"/>
    <circle id="Ellipse_72" data-name="Ellipse 72" cx="37.454" cy="37.454" r="37.454" transform="translate(591.853 78.17)" fill="#fbbebe"/>
    <path id="Path_234" data-name="Path 234" d="M762.608,276.082s-47.12,6.041-50.744,21.748,24.164,113.57,27.789,122.028,2.416,14.5,2.416,14.5a47.8,47.8,0,0,1,38.662-8.457c22.956,4.833,55.577,2.416,55.577,2.416s10.874-44.7,13.29-49.536,12.082-31.413,12.082-38.662,14.5-37.454,14.5-37.454-7.249-21.748-33.829-20.539c0,0-11.594-5.189-14.859-1.386S806.1,301.454,783.147,294.2,762.608,276.082,762.608,276.082Z" transform="translate(-166.527 -99.444)" fill="#3f3d56"/>
    <path id="Path_235" data-name="Path 235" d="M726.347,293.082h-13.29l-7.249,95.448s26.58,7.249,30.2,2.416S726.347,293.082,726.347,293.082Z" transform="translate(-167.72 -95.905)" fill="#3f3d56"/>
    <path id="Path_236" data-name="Path 236" d="M709.458,364.112l-3.625,9.666s-2.416,31.413,12.082,30.2,22.956-19.331,22.956-19.331-8.457-22.956-18.123-20.539S709.458,364.112,709.458,364.112Z" transform="translate(-167.746 -81.153)" fill="#3f3d56"/>
    <path id="Path_237" data-name="Path 237" d="M828.808,293.082l22.956,6.041s16.915,61.618,18.123,62.826,2.417,8.457,2.417,8.457,0,1.208,2.416,4.833,6.041,1.208,3.625,6.041-6.041,2.416-3.625,7.249,1.208,18.123,1.208,18.123-6.041-22.956-27.789-16.915l-14.5-65.243Z" transform="translate(-142.112 -95.905)" fill="#3f3d56"/>
    <path id="Path_238" data-name="Path 238" d="M751.506,204.182c-7.616,13.382-9.332,29.232-10.383,44.594-.451,6.588-.79,13.35,1.164,19.658,2.06,6.651,6.645,13.409,4.294,19.963-2.274,6.339-9.878,8.876-14.124,14.1-3.6,4.43-4.5,10.5-4.19,16.2s1.694,11.293,2.1,16.986a50.32,50.32,0,0,1-10.824,34.681c18.2-.7,37.654-8.771,45.328-25.287,2.294-4.937,3.41-10.341,5.481-15.376,2.342-5.7,5.876-10.852,8.094-16.6,3.347-8.669,3.528-18.188,3.667-27.479.083-5.562.142-11.272-1.782-16.491-4.237-11.489-17.414-18.911-18.722-31.086a6.149,6.149,0,0,1,.544-3.785,10.039,10.039,0,0,1,2.209-2.234c8.228-7.262,6.871-22.636,16.665-27.587,4.4-2.222,9.693-1.44,14.412-.034,5.241,1.562,10.47,3.98,13.879,8.255,6.866,8.609,4.156,21.046,2.032,31.851a190.132,190.132,0,0,0-3.25,47.617,30.809,30.809,0,0,0,1.12,7.542c1.262,3.988,3.951,7.338,5.981,11a36.322,36.322,0,0,1,3.79,24.669c-1.5,7.321-5.222,15.118-1.944,21.834a19.717,19.717,0,0,0,5.879,6.537c10.707,8.392,24.3,13.592,32.26,24.624,1.371-9.011-1.245-18.079-3.175-26.986s-3.106-18.605.862-26.81c1.741-3.6,4.4-6.732,5.825-10.468,3.287-8.63-.631-18.1-3.01-27.018a160.893,160.893,0,0,1-3.674-21.292L849.56,256.4c-2.028-16-4.151-32.331-11.177-46.851-13.242-27.363-43.21-37.525-70.043-22.363A45.368,45.368,0,0,0,751.506,204.182Z" transform="translate(-164.86 -119.418)" fill="#00728e"/>
    <path id="Path_239" data-name="Path 239" d="M719.306,377.865s-7.249,21.748,1.208,21.748,24.164-13.29,25.372-24.164,22.956-51.952,7.249-48.328S730.18,360.95,730.18,360.95Z" transform="translate(-165.512 -88.865)" fill="#fbbebe"/>
    <path id="Path_240" data-name="Path 240" d="M639.284,173.663,599.413,302.94l54.369,12.082,39.87-125.652Z" transform="translate(36.538 23.514)" fill="#0088a9"/>
    <path id="Path_241" data-name="Path 241" d="M879.177,373.528l7.548,12.614s3.326,23.632-13.589,23.632-41.079-22.956-41.079-22.956-12.082-4.833-19.331-3.625-47.12,0-30.2-20.539,45.911,0,45.911,0l30.2,14.5,15.707-8.457Z" transform="translate(-152.611 -83.32)" fill="#fbbebe"/>
    <path id="Path_242" data-name="Path 242" d="M855.39,357l-12.082,19.331s27.789,3.625,30.2,9.666-10.874-31.413-10.874-31.413Z" transform="translate(-139.093 -83.101)" fill="#3f3d56"/>
  </g>
</svg>
