<svg xmlns="http://www.w3.org/2000/svg" xmlns:xlink="http://www.w3.org/1999/xlink" width="373" height="667.68" viewBox="0 0 373 667.68">
  <defs>
    <linearGradient id="linear-gradient" x1="0.5" y1="1" x2="0.5" gradientUnits="objectBoundingBox">
      <stop offset="0" stop-color="gray" stop-opacity="0.251"/>
      <stop offset="0.54" stop-color="gray" stop-opacity="0.122"/>
      <stop offset="1" stop-color="gray" stop-opacity="0.102"/>
    </linearGradient>
  </defs>
  <g id="undraw_true_friends_c94g" transform="translate(-154 -53)">
    <g id="Group_6" data-name="Group 6" opacity="0.2">
      <path id="Path_85" data-name="Path 85" d="M433.55,753.92a42.59,42.59,0,0,0,2.16,6.52q20.85-8.19,42.16-15.7c-.12-.59-.24-1.21-.39-1.82a36.92,36.92,0,0,0-8.86-16.84c-5.68-6-13-8.9-20.12-7.13s-12.29,7.83-14.65,15.8a37.39,37.39,0,0,0-.3,19.17Z" transform="translate(-59 -87.5)" fill="#3f3d56"/>
      <ellipse id="Ellipse_14" data-name="Ellipse 14" cx="22.64" cy="30.29" rx="22.64" ry="30.29" transform="translate(359.217 600.3) rotate(-12.59)" fill="#3f3d56"/>
      <ellipse id="Ellipse_15" data-name="Ellipse 15" cx="22.64" cy="30.29" rx="22.64" ry="30.29" transform="translate(350.654 564.284) rotate(-12.59)" fill="#3f3d56"/>
      <ellipse id="Ellipse_16" data-name="Ellipse 16" cx="22.64" cy="30.29" rx="22.64" ry="30.29" transform="translate(342.074 528.29) rotate(-12.59)" fill="#3f3d56"/>
      <ellipse id="Ellipse_17" data-name="Ellipse 17" cx="22.64" cy="30.29" rx="22.64" ry="30.29" transform="translate(333.493 492.286) rotate(-12.59)" fill="#3f3d56"/>
      <path id="Path_86" data-name="Path 86" d="M444.74,337.44A111.578,111.578,0,0,0,450,323.06l-60,4.72,62.54-15.13a113.31,113.31,0,0,0-1.11-47.48,112,112,0,0,0-17.23-38.43L361,292.19l63.37-77.47c-25.87-27.62-65-40.76-103.89-31-58.11,14.53-93.72,74.57-79.54,134.1a110.74,110.74,0,0,0,38.39,61A113.13,113.13,0,0,0,272,401.46l84.42,21.14L270,415.11a113.461,113.461,0,0,0,2.68,36,110.84,110.84,0,0,0,38.4,61,112.85,112.85,0,0,0-6.64,72.27c14.18,59.53,72.78,96,130.89,81.48s93.72-74.56,79.54-134.09a110.84,110.84,0,0,0-38.4-61,112.85,112.85,0,0,0,6.64-72.27,110.77,110.77,0,0,0-38.37-61.06Z" transform="translate(-59 -87.5)" fill="#0088a9"/>
      <path id="Path_87" data-name="Path 87" d="M272.7,451.07a110.84,110.84,0,0,0,38.4,61,112.85,112.85,0,0,0-6.64,72.27c14.18,59.53,72.78,96,130.89,81.48s93.72-74.56,79.54-134.09a110.84,110.84,0,0,0-38.4-61C486.23,448.87,269.82,439,272.7,451.07Z" transform="translate(-59 -87.5)" opacity="0.1"/>
    </g>
    <ellipse id="Ellipse_31" data-name="Ellipse 31" cx="33.8" cy="6.5" rx="33.8" ry="6.5" transform="translate(279.9 707.68)" fill="#0088a9"/>
    <ellipse id="Ellipse_32" data-name="Ellipse 32" cx="3.94" cy="5.15" rx="3.94" ry="5.15" transform="translate(309.19 706.27)" fill="#3f3d56"/>
    <ellipse id="Ellipse_33" data-name="Ellipse 33" cx="3.94" cy="5.15" rx="3.94" ry="5.15" transform="translate(309.19 699.97)" fill="#3f3d56"/>
    <ellipse id="Ellipse_34" data-name="Ellipse 34" cx="3.94" cy="5.15" rx="3.94" ry="5.15" transform="translate(309.19 693.67)" fill="#3f3d56"/>
    <ellipse id="Ellipse_35" data-name="Ellipse 35" cx="3.94" cy="5.15" rx="3.94" ry="5.15" transform="translate(309.19 687.38)" fill="#3f3d56"/>
    <ellipse id="Ellipse_36" data-name="Ellipse 36" cx="3.94" cy="5.15" rx="3.94" ry="5.15" transform="translate(309.19 681.08)" fill="#3f3d56"/>
    <ellipse id="Ellipse_37" data-name="Ellipse 37" cx="3.94" cy="5.15" rx="3.94" ry="5.15" transform="translate(309.19 674.78)" fill="#3f3d56"/>
    <ellipse id="Ellipse_38" data-name="Ellipse 38" cx="3.94" cy="5.15" rx="3.94" ry="5.15" transform="translate(309.19 668.49)" fill="#3f3d56"/>
    <path id="Path_93" data-name="Path 93" d="M386.87,718.05a19.945,19.945,0,0,0,1.46-2.16L378,714.19l11.18.09a18.84,18.84,0,0,0,.36-14.94l-15,7.78L388.37,697a18.85,18.85,0,1,0-31.14,21.1,19.291,19.291,0,0,0-2.15,3.44l13.43,7-14.32-4.8a18.89,18.89,0,0,0,3,17.7,18.85,18.85,0,1,0,29.64,0,18.87,18.87,0,0,0,0-23.31Z" transform="translate(-59 -87.5)" fill="#0088a9"/>
    <path id="Path_94" data-name="Path 94" d="M353.2,729.7a18.83,18.83,0,0,0,4,11.66,18.85,18.85,0,1,0,29.64,0C389.39,738.15,353.2,727.59,353.2,729.7Z" transform="translate(-59 -87.5)" opacity="0.1"/>
    <path id="Path_95" data-name="Path 95" d="M550.66,515.43c-2.55-13.34-5.4-26.71-5.87-40.28-.28-8,.28-16.14-.75-24.12-.51-3.92-1.4-7.77-2.28-11.62L538.22,424a25.732,25.732,0,0,0-.34-8.87,31,31,0,0,0-1.41-4.51,70,70,0,0,0,8.11-15c.94-2.4,1.75-4.95,1.38-7.49-.72-4.87-5.44-8.08-9.83-10.48-2.66-1.45-5.46-2.85-8.5-3.08a13.81,13.81,0,0,0-11.2,5,24.33,24.33,0,0,1,.72-11.83c-2.61-1.17-5.24-2.27-7.89-3.34a72.441,72.441,0,0,1-.4-10.41c.06-4.17.13-8.38.37-12.56a37.1,37.1,0,0,0,24.38-34.63v-1.27a30.08,30.08,0,0,0,2.58-23.08c-2.93-10-10.59-18.24-19.82-23.33s-19.93-7.24-30.52-7.62a43.91,43.91,0,0,0-10.62.67,51.241,51.241,0,0,0-10.82,4c-5.29,2.44-10.62,5.11-14.58,9.32-6.87,7.33-8.41,18.1-7.66,28,1,13,5.34,25.58,10.36,37.68,1.67,4,3.45,8.06,6.2,11.47,2.13,2.63,5.83,2.79,8.77.95a96.02,96.02,0,0,0-.22,9.6c-5.43-.19-10.72.7-15.08,3.76-2,1.43-3.9,3.68-3.46,6.1a5.67,5.67,0,0,1,5.46,4.85c.22,2.13-.85,4.16-1.89,6-.45.82-.9,1.65-1.36,2.47-4.3,4.6-8.71,10.36-9.1,16.07a20.07,20.07,0,0,0-2.09.31c-3.9.72-7.78,2.05-11.61,3.05l-27.72,7.3-6.85,1.9-11,2.9c-7,1.84-14.13,3.73-20.34,7.43s-11.48,9.51-12.73,16.51c-.62,3.48-.24,7.1-1,10.55a1.8,1.8,0,0,1-.1.46,33.749,33.749,0,0,1-2.55,6.31c-6.21,13.09-10.63,27.36-9.8,41.77.51,8.85,3,17.48,5.42,26Q345.29,530,349,543.07a137.25,137.25,0,0,0,6.19,18.3,70.5,70.5,0,0,0,18.53,24.77,32.721,32.721,0,0,0,7.4,5,26.91,26.91,0,0,0,13,2.11c1.2-.08,2.38-.21,3.55-.4,8.59-1.36,16.6-5.5,23.95-10.16q4.61-2.92,9-6.15a57.094,57.094,0,0,0,2,9.92c.65,2.23,1.45,4.52,1.19,6.83-.36,3.22-2.7,5.86-3.91,8.88-2.57,6.38.07,13.49.5,20.33.41,6.41-1.15,12.77-2.4,19.08a199.213,199.213,0,0,0-3.69,31.92,96.55,96.55,0,0,1-.8,12.14c-.93,5.68-3.11,11.16-3.49,16.9-.58,8.94,3.28,17.69,2.93,26.64-.41,10.51-6.58,20.72-4.43,31,.27,1.29,1,2.78,2.18,3.11l-.58.53c-1.77,1.64-3.49,4.67-1.48,6a3.929,3.929,0,0,0,1.51.52c3.11.65,6.24,1.24,9.37,1.79a29,29,0,0,0,1.08,8.56c.57.41,1.15.78,1.73,1.13-.44,1.18-.41,2.32.63,3a3.931,3.931,0,0,0,1.51.52,326.474,326.474,0,0,0,78.35,6.5c4.7-.18,9.61-.52,13.62-2.92s6.72-7.51,4.81-11.72c-1.69-3.72-6.11-5.33-10.08-6.57l-4.66-1.44a8,8,0,0,0,.42-7c-1.69-3.72-6.11-5.33-10.08-6.57l-10.73-3.33a10.53,10.53,0,0,1-3.9-1.83A21.188,21.188,0,0,1,490.1,748a12,12,0,0,0-5.85-3.67,45.51,45.51,0,0,1,.15-6.82l3-36.21c.67-8.2,1.33-16.56-.58-24.57-.77-3.25-2-6.58-1.25-9.84,1.17-5.32,6.77-8.28,10.59-12.23,5.76-6,7.55-14.53,8.87-22.65a457.266,457.266,0,0,0,5.12-101.41,162,162,0,0,1,36.82-5.92c2.12-.09,3.16-1.09,3.82-3.07S551.05,517.48,550.66,515.43Zm-59.85,1.77c.07-.35.15-.7.21-1.05l.83,1.06Z" transform="translate(-59 -87.5)" fill="url(#linear-gradient)"/>
    <path id="Path_96" data-name="Path 96" d="M471.31,333.65c-.26,3.48-1.49,6.82-1.94,10.29-.51,3.82-.06,7.71-.31,11.56s-1.36,7.9-4.29,10.41a202.14,202.14,0,0,1,49.92,10.8c-4.87-6-5-14.38-4.88-22.08.16-11.39.36-23,4.08-33.75a82.139,82.139,0,0,0-33.74-.44c-2.42.48-9.75.18-10.84,2.44C468.52,324.54,471.49,331.13,471.31,333.65Z" transform="translate(-59 -87.5)" fill="#a1616a"/>
    <path id="Path_97" data-name="Path 97" d="M471.31,333.65c-.26,3.48-1.49,6.82-1.94,10.29-.51,3.82-.06,7.71-.31,11.56s-1.36,7.9-4.29,10.41a202.14,202.14,0,0,1,49.92,10.8c-4.87-6-5-14.38-4.88-22.08.16-11.39.36-23,4.08-33.75a82.139,82.139,0,0,0-33.74-.44c-2.42.48-9.75.18-10.84,2.44C468.52,324.54,471.49,331.13,471.31,333.65Z" transform="translate(-59 -87.5)" opacity="0.1"/>
    <path id="Path_98" data-name="Path 98" d="M491.47,748.05a20.772,20.772,0,0,0,2,2.51,10.061,10.061,0,0,0,3.81,1.83l10.48,3.33c3.89,1.24,8.21,2.84,9.86,6.56,1.86,4.2-.79,9.31-4.71,11.7s-8.72,2.74-13.31,2.92a313.131,313.131,0,0,1-76.59-6.49,4,4,0,0,1-1.47-.52c-2-1.35-.29-4.37,1.44-6,6.75-6.4,14.09-13.11,23.28-14.59,4.83-.79,9.68-.47,14.48-1.62,3.45-.83,6.71-2.26,10.15-3.11C477.3,743,486.89,742.44,491.47,748.05Z" transform="translate(-59 -87.5)" fill="#46455b"/>
    <path id="Path_99" data-name="Path 99" d="M491.47,748.05a20.772,20.772,0,0,0,2,2.51,10.061,10.061,0,0,0,3.81,1.83l10.48,3.33c3.89,1.24,8.21,2.84,9.86,6.56,1.86,4.2-.79,9.31-4.71,11.7s-8.72,2.74-13.31,2.92a313.131,313.131,0,0,1-76.59-6.49,4,4,0,0,1-1.47-.52c-2-1.35-.29-4.37,1.44-6,6.75-6.4,14.09-13.11,23.28-14.59,4.83-.79,9.68-.47,14.48-1.62,3.45-.83,6.71-2.26,10.15-3.11C477.3,743,486.89,742.44,491.47,748.05Z" transform="translate(-59 -87.5)" opacity="0.1"/>
    <path id="Path_100" data-name="Path 100" d="M438.85,521.87a63.56,63.56,0,0,0-.9,42.51c-3.49-.38-5,4.34-4.91,7.86a58.229,58.229,0,0,0,2.21,14.48c.64,2.24,1.42,4.52,1.17,6.82-.36,3.22-2.64,5.86-3.83,8.87-2.5,6.37.07,13.47.5,20.3.4,6.41-1.13,12.76-2.36,19.06a203.258,203.258,0,0,0-3.6,31.87,96.133,96.133,0,0,1-.79,12.13c-.9,5.68-3,11.15-3.4,16.88-.57,8.92,3.2,17.67,2.86,26.61-.4,10.49-6.44,20.69-4.33,31,.3,1.45,1.11,3.16,2.6,3.18,15.08.19,29.17-4,44.09-1.81,1.52-34.52,3-69.2,9.8-103.09,6-30.17,16.17-60,15.22-90.76-.55-17.59-4.73-34.84-7.27-52.26a68.75,68.75,0,0,0-47.06,6.35Z" transform="translate(-59 -87.5)" fill="#bbbdc8"/>
    <path id="Path_101" data-name="Path 101" d="M438.85,521.87a63.56,63.56,0,0,0-.9,42.51c-3.49-.38-5,4.34-4.91,7.86a58.229,58.229,0,0,0,2.21,14.48c.64,2.24,1.42,4.52,1.17,6.82-.36,3.22-2.64,5.86-3.83,8.87-2.5,6.37.07,13.47.5,20.3.4,6.41-1.13,12.76-2.36,19.06a203.258,203.258,0,0,0-3.6,31.87,96.133,96.133,0,0,1-.79,12.13c-.9,5.68-3,11.15-3.4,16.88-.57,8.92,3.2,17.67,2.86,26.61-.4,10.49-6.44,20.69-4.33,31,.3,1.45,1.11,3.16,2.6,3.18,15.08.19,29.17-4,44.09-1.81,1.52-34.52,3-69.2,9.8-103.09,6-30.17,16.17-60,15.22-90.76-.55-17.59-4.73-34.84-7.27-52.26a68.75,68.75,0,0,0-47.06,6.35Z" transform="translate(-59 -87.5)" opacity="0.1"/>
    <path id="Path_102" data-name="Path 102" d="M505.47,763.05a20.766,20.766,0,0,0,2,2.51,10.062,10.062,0,0,0,3.81,1.83l10.48,3.33c3.89,1.24,8.21,2.84,9.86,6.56,1.86,4.2-.79,9.31-4.71,11.7s-8.72,2.74-13.31,2.92a313.128,313.128,0,0,1-76.59-6.49,4,4,0,0,1-1.47-.52c-2-1.35-.29-4.37,1.44-6,6.75-6.4,14.09-13.11,23.28-14.59,4.83-.79,9.68-.47,14.48-1.62,3.45-.83,6.71-2.26,10.15-3.11C491.3,758,500.89,757.44,505.47,763.05Z" transform="translate(-59 -87.5)" fill="#46455b"/>
    <path id="Path_103" data-name="Path 103" d="M444.05,522.86c-3.86,5-5,11.6-4.48,17.86s2.63,12.27,4.7,18.2c-2.75,2.53-2.18,6.89-1.82,10.61,1.31,13.82-3.49,27.61-2.79,41.47.29,5.83,1.56,11.58,1.86,17.41.33,6.37-.48,12.74-1.24,19.07a1137.654,1137.654,0,0,0-8,122.09c0,3.76-.06,7.58,1,11.18,7.27,5.35,16.4,6.07,25.2,4.07s16.83-6.46,24.72-10.86a76.33,76.33,0,0,0,12.24-7.9,6.53,6.53,0,0,0,2.46-3.38c.84-4-4.72-5.81-7.91-8.4-4.64-3.77-4.57-10.75-4.09-16.71l2.9-36.16c.66-8.19,1.3-16.54-.56-24.54-.76-3.24-1.93-6.57-1.23-9.83,1.14-5.3,6.62-8.26,10.35-12.21,5.64-6,7.38-14.51,8.68-22.61A467.338,467.338,0,0,0,509.92,516c-7.35,2.55-16.06,1.16-23.81,1.76s-15.45,3.19-23.3,3.4C456.27,521.31,448.07,517.7,444.05,522.86Z" transform="translate(-59 -87.5)" fill="#bbbdc8"/>
    <circle id="Ellipse_39" data-name="Ellipse 39" cx="37" cy="37" r="37" transform="translate(401 183)" fill="#a1616a"/>
    <path id="Path_104" data-name="Path 104" d="M517.91,368.36A199.127,199.127,0,0,0,481,355.62c-8.94-2.13-19.15-3.41-26.62,1.94-2,1.43-3.81,3.68-3.38,6.1a5.56,5.56,0,0,1,5.33,4.84c.22,2.12-.82,4.15-1.84,6l-8.63,16a62.533,62.533,0,0,0-4.25,9c-1.74,5.08-2.12,10.52-2.49,15.88l-1,14.52c-.62,9.15-1.25,18.34-.42,27.47.62,6.89,2.06,13.81,1.08,20.66-.79,5.51-3.12,10.68-4.43,16.1-2.46,10.2-1.34,21.38-6.11,30.74a9.26,9.26,0,0,1,6.19-.56c14.48,2.67,25.87,14.1,39.93,18.47,3.55-5.18,8.36-9,12.33-13.82a26.721,26.721,0,0,0,5.67-12.54c3,4,5.55,7.12,7.34,11.76a7.9,7.9,0,0,0,1.6,2.93c1.89,1.84,5,1.13,7.53.36A155.2,155.2,0,0,1,547,525c2.08-.09,3.09-1.09,3.74-3.07a12.373,12.373,0,0,0-.1-6.16c-2.49-13.33-5.27-26.68-5.73-40.23-.28-8,.27-16.11-.74-24.09-.5-3.91-1.37-7.76-2.23-11.6l-7.14-31.73c-.4-1.77-2.3-2.93-3.11-4.56-3.28-6.64-9.55-11.44-12.79-18.1A23.73,23.73,0,0,1,517.91,368.36Z" transform="translate(-59 -87.5)" fill="#46455b"/>
    <path id="Path_105" data-name="Path 105" d="M466,322.31a2.45,2.45,0,0,1,.35-1.48,3.34,3.34,0,0,1,1.44-.89,7.59,7.59,0,0,0,4.23-8.11l3.5-.73.11-12.19c5.2-2.88,12.29-.7,17.18-4.09,2.75-1.92,4.16-5.18,5.84-8.08s4.18-5.82,7.52-6.06a21.42,21.42,0,0,0,1.15,18.13,20.65,20.65,0,0,0,8.43-7.88l1.74,10a2.48,2.48,0,0,0,.74,1.63c.91.67,2.14-.17,2.94-1l4.53-4.45A62.362,62.362,0,0,1,529.59,312c7.44-7.22,9.75-18.82,6.89-28.78s-10.35-18.21-19.37-23.3-19.48-7.23-29.83-7.61a42.421,42.421,0,0,0-10.38.67,49.278,49.278,0,0,0-10.58,4c-5.17,2.43-10.39,5.1-14.25,9.3-6.72,7.32-8.23,18.08-7.49,28,1,13,5.22,25.55,10.13,37.63,1.63,4,3.37,8.05,6.06,11.46,4.05,5.13,14,.87,12.73-9.27C472.62,326.86,466,329.65,466,322.31Z" transform="translate(-59 -87.5)" fill="#3f3d56"/>
    <path id="Path_106" data-name="Path 106" d="M480,520.4A156.9,156.9,0,0,1,424.55,583c-7.19,4.65-15,8.79-23.41,10.15-1.15.19-2.3.32-3.47.4A25.9,25.9,0,0,1,385,591.4a32,32,0,0,1-7.24-5,70.31,70.31,0,0,1-18.11-24.73,139.252,139.252,0,0,1-6.05-18.28q-3.68-13.06-7.34-26.13c-2.39-8.52-4.8-17.14-5.3-26-.81-14.39,3.51-28.64,9.58-41.71a34.4,34.4,0,0,0,2.49-6.3,2.717,2.717,0,0,1,.1-.46c.72-3.45.35-7.06,1-10.54,1.22-7,6.38-12.8,12.44-16.49s13-5.58,19.89-7.42l10.73-2.89,6.66-1.79,27.09-7.29c3.75-1,7.54-2.33,11.35-3,4.25-.8,4.22-.38,4.55,3.78.61,7.54.41,14.95,2,22.42,1.51,7.13,4.17,14,6.17,21,5.05,17.67,5.89,36.27,9.87,54.22.91,4.09,2.17,8.45,5.46,11,3.77,3,10.12,3.74,11.12,8.44C481.83,516.32,480.9,518.46,480,520.4Z" transform="translate(-59 -87.5)" fill="#0088a9"/>
    <path id="Path_107" data-name="Path 107" d="M401.14,593.11c-1.15.19-2.3.32-3.47.4A25.9,25.9,0,0,1,385,591.4a32,32,0,0,1-7.24-5,70.31,70.31,0,0,1-18.11-24.73,139.252,139.252,0,0,1-6.05-18.28q-3.68-13.06-7.34-26.13c-2.39-8.52-4.8-17.14-5.3-26-.81-14.39,3.51-28.64,9.58-41.71a34.4,34.4,0,0,0,2.49-6.3,2.717,2.717,0,0,1,.1-.46c16.32,2.87,35.9,34.09,46,75C406.57,548.38,406.89,576.55,401.14,593.11Z" transform="translate(-59 -87.5)" opacity="0.1"/>
    <path id="Path_108" data-name="Path 108" d="M430.64,485.47l-2.73.47c-2.81-7.38-5.61-14.77-8.9-21.95-1.71-3.75-3.56-7.45-5-11.32-5.4-14.86-4.48-32.49-14.49-44.73a15.309,15.309,0,0,0-2.43-2.46l6.66-1.79a90.32,90.32,0,0,1,12.14,30.11c1.08,5.22,1.69,10.56,3.45,15.58a107.719,107.719,0,0,0,5.13,11.14C428.27,468.31,431.13,476.82,430.64,485.47Z" transform="translate(-59 -87.5)" opacity="0.1"/>
    <path id="Path_109" data-name="Path 109" d="M457.22,372.8c7.19-6.16,17-9.54,26.31-8,5.48.89,10.57,3.36,15.48,6,9.57,5.08,19,10.93,25.9,19.28a77.289,77.289,0,0,1,10.22,17.2,41.7,41.7,0,0,1,3,8.41c2.44,11.3-3.55,22.53-9.32,32.55l-11.1,19.26c-5.1,8.85-10.24,17.76-16.88,25.53-3.06,3.58-6.42,6.89-9.77,10.2l-14.71,14.52a1.655,1.655,0,0,1-2.73-.02l-4.86-3.87a82.669,82.669,0,0,0,12.42-10.53c6.36-6.58,11.59-14.15,16.79-21.69l16.18-23.46c4.73-6.87,9.67-14.43,9.14-22.75-.25-4-1.75-7.76-3.32-11.43q-4.17-9.79-9.06-19.27c-3.66-7.09-7.66-14.09-12.93-20.08s-11.93-11-19.6-13.17a16.32,16.32,0,0,0-7.1-.68c-5.26.87-9,5.39-12.33,9.59l-10.14,13c-2.31,2.95-4.43,6.37-4.57.77C444,386.17,452.08,377.94,457.22,372.8Z" transform="translate(-59 -87.5)" fill="#0088a9"/>
    <path id="Path_110" data-name="Path 110" d="M460.36,460.5c2,7.7,4.95,16.44,12.36,19.36,5.25,2.07,11.4.39,15.94-3s7.76-8.17,10.72-13a126.259,126.259,0,0,1,8.27-12.54c5.93-7.44,14-13.34,18-22,1.18-2.58,2-5.34,3.34-7.82a48.872,48.872,0,0,1,4.84-6.47,70.13,70.13,0,0,0,10.91-18.94c.92-2.39,1.71-4.95,1.35-7.48-.71-4.87-5.32-8.07-9.61-10.46-2.61-1.45-5.34-2.86-8.31-3.08-4.34-.34-8.61,2-11.28,5.43a21.7,21.7,0,0,0-4.12,12.17c-.3,5.33.74,10.87-1,15.91A25,25,0,0,1,508,415.1a76.449,76.449,0,0,1-20.51,18.93A35.591,35.591,0,0,0,485.06,423c-.76-1.94-15.66,0-17.6.32-3.84.56-11.28,1-13.7,4.66s.58,9.81,1.56,13.5Z" transform="translate(-59 -87.5)" fill="#a1616a"/>
    <path id="Path_111" data-name="Path 111" d="M460,376.47a52.643,52.643,0,0,0-6.16,6c-4.44,5.35-6.61,12.31-7.17,19.24s.39,13.89,1.58,20.74q1.62,9.22,3.83,18.31c.41-4.57,4.11-8.35,8.4-10s9-1.47,13.57-.8a66.332,66.332,0,0,1,17.06,4.93l2.11-29.57a51.52,51.52,0,0,0-.07-12,26.45,26.45,0,0,0-12.34-17.95C472.79,370.49,467.2,370.18,460,376.47Z" transform="translate(-59 -87.5)" fill="#46455b"/>
    <circle id="Ellipse_41" data-name="Ellipse 41" cx="7" cy="7" r="7" transform="translate(466 53)" fill="#6c63ff" opacity="0.1"/>
    <circle id="Ellipse_42" data-name="Ellipse 42" cx="7" cy="7" r="7" transform="translate(513 188)" fill="#6c63ff" opacity="0.1"/>
    <circle id="Ellipse_43" data-name="Ellipse 43" cx="7" cy="7" r="7" transform="translate(380 60)" fill="#6c63ff" opacity="0.1"/>
    <circle id="Ellipse_44" data-name="Ellipse 44" cx="18" cy="18" r="18" transform="translate(154 368)" fill="#6c63ff" opacity="0.1"/>
    <circle id="Ellipse_49" data-name="Ellipse 49" cx="7" cy="7" r="7" transform="translate(452 109)" fill="#6c63ff" opacity="0.1"/>
    <circle id="Ellipse_50" data-name="Ellipse 50" cx="7" cy="7" r="7" transform="translate(190 463)" fill="#6c63ff" opacity="0.1"/>
    <circle id="Ellipse_51" data-name="Ellipse 51" cx="7" cy="7" r="7" transform="translate(179 303)" fill="#6c63ff" opacity="0.1"/>
  </g>
</svg>
