<svg xmlns="http://www.w3.org/2000/svg" width="370.833" height="694.087" viewBox="0 0 370.833 694.087">
  <g id="undraw_learning_2q1h" transform="translate(-721.295 -63.513)">
    <ellipse id="Ellipse_59" data-name="Ellipse 59" cx="185.416" cy="9.373" rx="185.416" ry="9.373" transform="translate(721.295 738.854)" fill="#3f3d56"/>
    <path id="Path_192" data-name="Path 192" d="M894.391,549.614l16.637-11.564,34.48-44.383a6.043,6.043,0,0,0-1.065-8.48h0a6.043,6.043,0,0,0-8.48,1.065l-34.48,44.383Z" transform="translate(-56.68 -59.207)" fill="#2f2e41"/>
    <path id="Path_193" data-name="Path 193" d="M1042.209,142.055s-20.923-18.758-49.061,16.594S921,211.317,910.9,225.025c0,0,41.846-17.316,56.275-24.53s13.708-5.772,13.708-5.772S961.4,208.431,957.8,222.139s-.721,25.252-7.215,38.96,124.095,9.379,124.095,9.379,12.987-22.366,9.379-45.453S1082.612,144.941,1042.209,142.055Z" transform="translate(-55.996 -73.569)" fill="#2f2e41"/>
    <path id="Path_194" data-name="Path 194" d="M998.76,195.2s5.05,35.353-16.594,43.289-13.708,18.758-13.708,18.758l32.467,15.873,34.631-10.822,11.544-17.316s-18.759-4.329-13.708-17.316,6.493-17.316,6.493-17.316Z" transform="translate(-53.672 -71.163)" fill="#ffb9b9"/>
    <path id="Path_195" data-name="Path 195" d="M998.76,195.2s5.05,35.353-16.594,43.289-13.708,18.758-13.708,18.758l32.467,15.873,34.631-10.822,11.544-17.316s-18.759-4.329-13.708-17.316,6.493-17.316,6.493-17.316Z" transform="translate(-53.672 -71.163)" opacity="0.1"/>
    <path id="Path_196" data-name="Path 196" d="M1085.966,292.193s-5.05,66.376-3.607,69.262,0,103.172,0,103.172,10.1,54.111-2.886,57-10.1-60.6-10.1-60.6l-12.987-83.692,1.443-82.97Z" transform="translate(-49.972 -67.146)" fill="#ffb9b9"/>
    <path id="Path_197" data-name="Path 197" d="M1085.966,292.193s-5.05,66.376-3.607,69.262,0,103.172,0,103.172,10.1,54.111-2.886,57-10.1-60.6-10.1-60.6l-12.987-83.692,1.443-82.97Z" transform="translate(-49.972 -67.146)" opacity="0.1"/>
    <path id="Path_198" data-name="Path 198" d="M950.614,484.1s-23.809,90.185-23.087,134.2,10.1,105.336,10.1,105.336,1.443,26.695-.721,29.581,10.822,15.151,10.822,15.151l13.708-7.936,5.05-5.772V749.6s-7.936-24.53-1.443-44.01,10.1-68.541,3.607-83.692l44.732-132.752Z" transform="translate(-55.308 -59.199)" fill="#ffb9b9"/>
    <path id="Path_199" data-name="Path 199" d="M950.189,746.288s-8.658-10.822-14.43-7.215-15.151,28.138-15.151,28.138-32.467,31.024-9.379,32.467,33.188-6.493,36.074-12.265,29.581-20.923,29.581-20.923-2.886-27.416-7.215-28.138-10.822,10.822-10.822,10.822Z" transform="translate(-56.326 -48.672)" fill="#2f2e41"/>
    <path id="Path_200" data-name="Path 200" d="M1025.611,490.5v89.464a276.632,276.632,0,0,0,2.165,32.467c2.164,15.873-12.265,134.2-12.265,134.2l1.443,20.923,18.037-1.443,2.164-18.037,25.973-79.363s8.658-48.339,4.329-66.376,22.366-133.474,22.366-133.474Z" transform="translate(-51.664 -59.83)" fill="#ffb9b9"/>
    <path id="Path_201" data-name="Path 201" d="M1011.415,751.15l5.343-1.162s4.036-8.939,9.086-6.775a54.463,54.463,0,0,1,10.042,6.017l2.223,4.083s5.05,10.822,11.544,18.037,13.708,23.087,2.886,24.53-25.252,2.164-29.581-1.443-1.443-9.379-5.772-10.822-7.936-5.772-7.215-7.215S1011.415,751.15,1011.415,751.15Z" transform="translate(-51.897 -48.483)" fill="#2f2e41"/>
    <circle id="Ellipse_61" data-name="Ellipse 61" cx="34.631" cy="34.631" r="34.631" transform="translate(939.316 82.194)" fill="#ffb9b9"/>
    <path id="Path_202" data-name="Path 202" d="M967.015,242.444l9.53-3.327s-3.758,6.213,16.443,9.821,41.122,4.885,50.5-6.937c0,0,3.608-1.721,8.659,3.33s7.936,3.607,7.936,3.607l-3.607,18.758-7.215,34.631-9.379,25.973-26.695-5.772-28.859-20.923-10.822-28.138V247.495Z" transform="translate(-53.672 -69.344)" fill="#0088a9"/>
    <path id="Path_203" data-name="Path 203" d="M1056.47,252.438l7.215-5.05s24.53,4.329,25.973,15.873L1070.9,299.334a41.07,41.07,0,0,1-.721,31.024c-7.215,16.594-6.493,20.2-6.493,20.2l-5.05,21.644-91.628,7.215s-3.607-8.658-5.05-10.1-1.443-6.493,0-6.493,0-2.164-1.443-4.329-2.164-2.886,0-5.772-3.607-28.859-3.607-28.859V295.727l-24.53-32.467s8.658-12.987,12.987-14.43,24.921-7.134,24.921-7.134l4.66,6.861,6.493,52.219,9.379,31.745,39.491-6.71,15.341-25.757,10.1-30.3Z" transform="translate(-55.107 -69.237)" fill="#0088a9"/>
    <path id="Path_204" data-name="Path 204" d="M1078.58,258.246l5.772,4.329s5.05,40.4,3.607,43.289-26.695,5.772-27.416,4.329S1078.58,258.246,1078.58,258.246Z" transform="translate(-49.8 -68.552)" fill="#0088a9"/>
    <path id="Path_205" data-name="Path 205" d="M927.532,300.506s5.05,66.376,3.607,69.262,0,103.172,0,103.172-10.1,54.111,2.886,57,10.1-60.6,10.1-60.6l12.987-83.692-1.443-82.97Z" transform="translate(-55.313 -66.802)" fill="#ffb9b9"/>
    <path id="Path_206" data-name="Path 206" d="M964.326,238.963l7.215,47.618s-6.493,70.705-5.05,85.135l1.443,4.329s-2.886-1.443-3.607,1.443,0,12.265,0,12.265-4.329,4.329-5.772,28.138S939.8,498.7,946.289,500.86s45.453,12.987,66.376,10.822,95.957-27.416,95.235-33.91-36.8-98.121-36.8-98.121-6.493-10.822-6.493-12.265,8.658-7.215,6.493-12.987-13.708-66.376-13.708-66.376l7.936-43.289-10.822-2.886-7.936,41.846s-31.024,15.151-63.49,1.443l-7.215-49.061Z" transform="translate(-54.591 -69.47)" fill="#2f2e41"/>
    <path id="Path_207" data-name="Path 207" d="M938.483,260.324l-5.772,2.164s-10.822,45.453-7.936,45.453,37.517,4.329,37.517,2.886-6.493-36.8-6.493-36.8Z" transform="translate(-55.442 -68.466)" fill="#0088a9"/>
    <path id="Path_208" data-name="Path 208" d="M998.884,159.751s53.389,36.8,67.819,20.2-25.252-31.024-25.252-31.024l-33.188-3.607Z" transform="translate(-52.353 -73.228)" fill="#2f2e41"/>
    <path id="Path_216" data-name="Path 216" d="M525.82,609.932l41.386-57.819-41.49,64.172-.1,6.634c-2.9-.062-5.769-.2-8.6-.4l4.457-85.25-.031-.667.073-.115.427-8.06L480.342,464.1l41.719,58.288.1,1.708,3.364-64.411-35.606-66.473,36.043,55.174,3.51-133.551.01-.458v.448L528.9,420.135l35.45-41.75-35.6,50.821-.937,57.673,33.106-55.351-33.242,63.838-.521,32.065,48.04-77.044-48.228,88.228Z" transform="translate(516.654 130.599)" fill="#3f3d56"/>
  </g>
</svg>
